# Blender 3.6.4
# www.blender.org
mtllib 2people.mtl
o Cube.014
v 1.929323 0.290304 0.056482
v 1.995663 0.223964 0.056482
v 1.995663 0.356644 0.056482
v 2.062003 0.290304 0.056482
v 1.929323 0.290304 -0.890119
v 1.995663 0.223964 -0.890119
v 1.995663 0.356644 -0.890119
v 2.062003 0.290304 -0.890119
v 0.082090 2.280500 -1.799261
v 0.082090 2.616633 1.401514
v 0.317499 2.239602 -1.799261
v 0.464774 2.550148 1.401514
v 0.517068 2.123133 -1.799261
v 0.789197 2.360815 1.401514
v 0.650416 1.948825 -1.799261
v 1.005970 2.077458 1.401514
v 0.697242 1.743215 -1.799261
v 1.082090 1.743215 1.401514
v 0.650416 1.537605 -1.799261
v 1.005970 1.408973 1.401514
v 0.517068 1.363297 -1.799261
v 0.789197 1.125615 1.401514
v 0.317499 1.246829 -1.799261
v 0.464774 0.936282 1.401514
v 0.082090 1.205930 -1.799261
v 0.082090 0.869797 1.401514
v -0.153318 1.246829 -1.799261
v -0.300593 0.936282 1.401514
v -0.352888 1.363298 -1.799261
v -0.625017 1.125615 1.401514
v -0.486236 1.537605 -1.799261
v -0.841789 1.408973 1.401514
v -0.533062 1.743215 -1.799261
v -0.917910 1.743215 1.401514
v -0.486236 1.948825 -1.799261
v -0.841789 2.077458 1.401514
v -0.352888 2.123133 -1.799261
v -0.625017 2.360815 1.401514
v -0.153318 2.239602 -1.799261
v -0.300593 2.550148 1.401514
v 0.082090 2.616633 -1.799261
v 0.464774 2.550148 -1.799261
v 0.789197 2.360815 -1.799261
v 1.005970 2.077458 -1.799261
v 1.082090 1.743215 -1.799261
v 1.005970 1.408973 -1.799261
v 0.789197 1.125616 -1.799261
v 0.464774 0.936283 -1.799261
v 0.082090 0.869797 -1.799261
v -0.300593 0.936282 -1.799261
v -0.625017 1.125616 -1.799261
v -0.841789 1.408973 -1.799261
v -0.917910 1.743215 -1.799261
v -0.841789 2.077458 -1.799261
v -0.625017 2.360815 -1.799261
v -0.300593 2.550148 -1.799261
v 0.060753 0.888994 0.010483
v 0.060752 2.673684 0.010483
v 0.394354 0.888994 0.063320
v 0.394354 2.673684 0.063321
v 0.695301 0.888994 0.216660
v 0.695301 2.673684 0.216660
v 0.934134 0.888994 0.455493
v 0.934134 2.673684 0.455493
v 1.087474 0.888994 0.756440
v 1.087474 2.673684 0.756440
v 1.140311 0.888994 1.090042
v 1.140311 2.673684 1.090042
v 1.087474 0.888994 1.423644
v 1.087474 2.673684 1.423644
v 0.934134 0.888994 1.724591
v 0.934134 2.673684 1.724591
v 0.695301 0.888994 1.963423
v 0.695301 2.673684 1.963423
v 0.394354 0.888994 2.116763
v 0.394354 2.673684 2.116763
v 0.060753 0.888994 2.169600
v 0.060752 2.673684 2.169600
v -0.272849 0.888994 2.116763
v -0.272850 2.673684 2.116763
v -0.573796 0.888994 1.963423
v -0.573796 2.673684 1.963423
v -0.812629 0.888995 1.724591
v -0.812629 2.673684 1.724591
v -0.965969 0.888995 1.423644
v -0.965969 2.673684 1.423644
v -1.018806 0.888995 1.090042
v -1.018806 2.673684 1.090042
v -0.965969 0.888994 0.756440
v -0.965969 2.673684 0.756440
v -0.812629 0.888995 0.455493
v -0.812629 2.673684 0.455493
v -0.573796 0.888994 0.216660
v -0.573796 2.673684 0.216660
v -0.272849 0.888994 0.063320
v -0.272850 2.673684 0.063320
v 0.156675 2.156380 1.371139
v 0.326393 2.238139 1.371139
v 0.156675 2.156380 1.182755
v 0.326393 2.238139 1.182755
v 1.601946 -0.843775 1.371139
v 1.771664 -0.762016 1.371139
v 1.601946 -0.843775 1.182755
v 1.771664 -0.762016 1.182755
v -0.056218 2.156380 1.182754
v -0.225936 2.238139 1.182754
v -0.056218 2.156380 1.371139
v -0.225936 2.238139 1.371139
v -1.501489 -0.843774 1.182755
v -1.671207 -0.762015 1.182755
v -1.501489 -0.843774 1.371140
v -1.671207 -0.762016 1.371140
v 0.156675 2.156380 -1.045188
v 0.326393 2.238139 -1.045188
v 0.156675 2.156380 -1.233573
v 0.326393 2.238139 -1.233573
v 1.601946 -0.843774 -1.045188
v 1.771664 -0.762016 -1.045188
v 1.601946 -0.843774 -1.233573
v 1.771664 -0.762016 -1.233573
v -0.056219 2.156380 -1.233573
v -0.225937 2.238138 -1.233573
v -0.056219 2.156379 -1.045188
v -0.225937 2.238138 -1.045188
v -1.501489 -0.843775 -1.233572
v -1.671207 -0.762016 -1.233572
v -1.501489 -0.843775 -1.045187
v -1.671207 -0.762016 -1.045187
v 0.646973 1.543378 0.094315
v 0.735935 1.632339 0.094315
v 0.646973 1.543378 -0.031495
v 0.735935 1.632339 -0.031495
v 2.358044 -0.167693 0.094315
v 2.447006 -0.078731 0.094315
v 2.358044 -0.167693 -0.031495
v 2.447006 -0.078731 -0.031495
v 0.646973 1.543378 -0.801087
v 0.735935 1.632340 -0.801087
v 0.646973 1.543378 -0.926898
v 0.735935 1.632340 -0.926898
v 2.358044 -0.167693 -0.801087
v 2.447006 -0.078731 -0.801087
v 2.358044 -0.167693 -0.926898
v 2.447006 -0.078731 -0.926898
v 1.110938 1.108689 0.056481
v 1.177278 1.042349 0.056481
v 1.177278 1.175029 0.056481
v 1.243618 1.108689 0.056481
v 1.110938 1.108689 -0.890119
v 1.177279 1.042349 -0.890119
v 1.177278 1.175029 -0.890119
v 1.243618 1.108689 -0.890119
v 1.541589 0.678038 0.056481
v 1.607929 0.611698 0.056481
v 1.607929 0.744378 0.056481
v 1.674269 0.678038 0.056481
v 1.541589 0.678038 -0.890119
v 1.607929 0.611698 -0.890119
v 1.607929 0.744378 -0.890119
v 1.674269 0.678038 -0.890119
v 0.310821 1.467922 -0.190781
v 0.310821 2.244463 -0.190781
v 0.310821 1.467922 -0.631832
v 0.310821 2.244463 -0.631832
v 1.087362 1.467922 -0.190781
v 1.087362 2.244463 -0.190781
v 1.087362 1.467922 -0.631832
v 1.087362 2.244463 -0.631832
v 1.087362 2.193391 -0.587335
v 1.087362 1.963581 -0.587335
v 1.087362 1.963581 -0.235278
v 1.087362 2.193391 -0.235278
vn -0.0000 -0.0000 1.0000
vn 0.7071 0.7071 -0.0000
vn -0.0000 -0.0000 -1.0000
vn -0.7071 -0.7071 -0.0000
vn -0.7071 0.7071 -0.0000
vn 0.7071 -0.7071 -0.0000
vn 0.1712 0.9852 -0.0000
vn 0.5040 0.8637 -0.0000
vn 0.7942 0.6076 -0.0000
vn 0.9750 0.2221 -0.0000
vn 0.9750 -0.2221 -0.0000
vn 0.7942 -0.6076 -0.0000
vn 0.5040 -0.8637 -0.0000
vn 0.1712 -0.9852 -0.0000
vn -0.1712 -0.9852 -0.0000
vn -0.5040 -0.8637 -0.0000
vn -0.7942 -0.6076 -0.0000
vn -0.9750 -0.2221 -0.0000
vn -0.9750 0.2221 -0.0000
vn -0.7942 0.6076 -0.0000
vn -0.5040 0.8637 -0.0000
vn -0.1712 0.9852 -0.0000
vn 0.1564 -0.0000 -0.9877
vn 0.4540 -0.0000 -0.8910
vn 0.7071 -0.0000 -0.7071
vn 0.8910 -0.0000 -0.4540
vn 0.9877 -0.0000 -0.1564
vn 0.9877 -0.0000 0.1564
vn 0.8910 -0.0000 0.4540
vn 0.7071 -0.0000 0.7071
vn 0.4540 -0.0000 0.8910
vn 0.1564 -0.0000 0.9877
vn -0.1564 -0.0000 0.9877
vn -0.4540 -0.0000 0.8910
vn -0.7071 -0.0000 0.7071
vn -0.8910 -0.0000 0.4540
vn -0.9877 -0.0000 0.1564
vn -0.9877 -0.0000 -0.1564
vn -0.8910 -0.0000 -0.4540
vn -0.7071 -0.0000 -0.7071
vn -0.0000 1.0000 -0.0000
vn -0.4540 -0.0000 -0.8910
vn -0.1564 -0.0000 -0.9877
vn -0.0000 -1.0000 -0.0000
vn -0.4340 0.9009 -0.0000
vn 0.4340 -0.9009 -0.0000
vn -0.9009 -0.4340 -0.0000
vn 0.9009 0.4340 -0.0000
vn 0.4340 0.9009 -0.0000
vn -0.4340 -0.9009 -0.0000
vn 0.9009 -0.4340 -0.0000
vn -0.9009 0.4340 -0.0000
vn -1.0000 -0.0000 -0.0000
vn 1.0000 -0.0000 -0.0000
vt 0.375000 0.000000
vt 0.625000 0.000000
vt 0.625000 0.250000
vt 0.375000 0.250000
vt 0.625000 0.500000
vt 0.375000 0.500000
vt 0.625000 0.750000
vt 0.375000 0.750000
vt 0.625000 1.000000
vt 0.375000 1.000000
vt 0.125000 0.500000
vt 0.125000 0.750000
vt 0.875000 0.500000
vt 0.875000 0.750000
vt 1.000000 0.500000
vt 1.000000 1.000000
vt 0.937500 1.000000
vt 0.937500 0.500000
vt 0.875000 1.000000
vt 0.812500 1.000000
vt 0.812500 0.500000
vt 0.750000 1.000000
vt 0.750000 0.500000
vt 0.687500 1.000000
vt 0.687500 0.500000
vt 0.562500 1.000000
vt 0.562500 0.500000
vt 0.500000 1.000000
vt 0.500000 0.500000
vt 0.437500 1.000000
vt 0.437500 0.500000
vt 0.312500 1.000000
vt 0.312500 0.500000
vt 0.250000 1.000000
vt 0.250000 0.500000
vt 0.187500 1.000000
vt 0.187500 0.500000
vt 0.125000 1.000000
vt 0.341844 0.471731
vt 0.250000 0.490000
vt 0.158156 0.471731
vt 0.080294 0.419706
vt 0.028269 0.341844
vt 0.010000 0.250000
vt 0.028269 0.158156
vt 0.080294 0.080294
vt 0.158156 0.028269
vt 0.250000 0.010000
vt 0.341844 0.028269
vt 0.419706 0.080294
vt 0.471731 0.158156
vt 0.490000 0.250000
vt 0.471731 0.341844
vt 0.419706 0.419706
vt 0.062500 1.000000
vt 0.062500 0.500000
vt 0.000000 1.000000
vt 0.000000 0.500000
vt 0.750000 0.409213
vt 0.810928 0.397093
vt 0.862580 0.362580
vt 0.897093 0.310928
vt 0.909213 0.250000
vt 0.897093 0.189072
vt 0.862580 0.137420
vt 0.810928 0.102907
vt 0.750000 0.090787
vt 0.689072 0.102907
vt 0.637420 0.137420
vt 0.602907 0.189072
vt 0.590787 0.250000
vt 0.602907 0.310928
vt 0.637420 0.362580
vt 0.689072 0.397093
vt 0.750000 0.490000
vt 0.841844 0.471731
vt 0.919706 0.419706
vt 0.971731 0.341844
vt 0.990000 0.250000
vt 0.971731 0.158156
vt 0.919706 0.080294
vt 0.841844 0.028269
vt 0.750000 0.010000
vt 0.658156 0.028269
vt 0.580294 0.080294
vt 0.528269 0.158156
vt 0.510000 0.250000
vt 0.528269 0.341844
vt 0.580294 0.419706
vt 0.658156 0.471731
vt 0.950000 1.000000
vt 0.950000 0.500000
vt 0.900000 1.000000
vt 0.900000 0.500000
vt 0.850000 1.000000
vt 0.850000 0.500000
vt 0.800000 1.000000
vt 0.800000 0.500000
vt 0.750000 1.000000
vt 0.750000 0.500000
vt 0.700000 1.000000
vt 0.700000 0.500000
vt 0.650000 1.000000
vt 0.650000 0.500000
vt 0.600000 1.000000
vt 0.600000 0.500000
vt 0.550000 1.000000
vt 0.550000 0.500000
vt 0.500000 1.000000
vt 0.500000 0.500000
vt 0.450000 1.000000
vt 0.450000 0.500000
vt 0.400000 1.000000
vt 0.400000 0.500000
vt 0.350000 1.000000
vt 0.350000 0.500000
vt 0.300000 1.000000
vt 0.300000 0.500000
vt 0.250000 1.000000
vt 0.250000 0.500000
vt 0.200000 1.000000
vt 0.200000 0.500000
vt 0.150000 1.000000
vt 0.150000 0.500000
vt 0.100000 1.000000
vt 0.100000 0.500000
vt 0.324164 0.478254
vt 0.175836 0.478254
vt 0.108932 0.444164
vt 0.055836 0.391068
vt 0.021746 0.324164
vt 0.021746 0.175836
vt 0.055836 0.108932
vt 0.108932 0.055836
vt 0.175836 0.021746
vt 0.324164 0.021746
vt 0.391068 0.055836
vt 0.444164 0.108932
vt 0.478254 0.175836
vt 0.478254 0.324164
vt 0.444164 0.391068
vt 0.391068 0.444164
vt 0.050000 1.000000
vt 0.050000 0.500000
vt -0.000000 1.000000
vt -0.000000 0.500000
vt 0.824164 0.478254
vt 0.891068 0.444164
vt 0.944164 0.391068
vt 0.978254 0.324164
vt 0.978254 0.175836
vt 0.944164 0.108932
vt 0.891068 0.055836
vt 0.824164 0.021746
vt 0.675836 0.021746
vt 0.608932 0.055836
vt 0.555836 0.108932
vt 0.521746 0.175836
vt 0.521746 0.324164
vt 0.555836 0.391068
vt 0.608932 0.444164
vt 0.675836 0.478254
s 0
usemtl ShinyBrownStairs
f 1/1/1 2/2/1 4/3/1 3/4/1
f 3/4/2 4/3/2 8/5/2 7/6/2
f 7/6/3 8/5/3 6/7/3 5/8/3
f 5/8/4 6/7/4 2/9/4 1/10/4
f 3/11/5 7/6/5 5/8/5 1/12/5
f 8/5/6 4/13/6 2/14/6 6/7/6
f 129/1/5 130/2/5 132/3/5 131/4/5
f 131/4/3 132/3/3 136/5/3 135/6/3
f 135/6/6 136/5/6 134/7/6 133/8/6
f 133/8/1 134/7/1 130/9/1 129/10/1
f 131/11/4 135/6/4 133/8/4 129/12/4
f 136/5/2 132/13/2 130/14/2 134/7/2
f 137/1/5 138/2/5 140/3/5 139/4/5
f 139/4/3 140/3/3 144/5/3 143/6/3
f 143/6/6 144/5/6 142/7/6 141/8/6
f 141/8/1 142/7/1 138/9/1 137/10/1
f 139/11/4 143/6/4 141/8/4 137/12/4
f 144/5/2 140/13/2 138/14/2 142/7/2
f 145/1/1 146/2/1 148/3/1 147/4/1
f 147/4/2 148/3/2 152/5/2 151/6/2
f 151/6/3 152/5/3 150/7/3 149/8/3
f 149/8/4 150/7/4 146/9/4 145/10/4
f 147/11/5 151/6/5 149/8/5 145/12/5
f 152/5/6 148/13/6 146/14/6 150/7/6
f 153/1/1 154/2/1 156/3/1 155/4/1
f 155/4/2 156/3/2 160/5/2 159/6/2
f 159/6/3 160/5/3 158/7/3 157/8/3
f 157/8/4 158/7/4 154/9/4 153/10/4
f 155/11/5 159/6/5 157/8/5 153/12/5
f 160/5/6 156/13/6 154/14/6 158/7/6
usemtl GeneralBaseColor
f 41/15/7 10/16/7 12/17/7 42/18/7
f 42/18/8 12/17/8 14/19/8 43/13/8
f 43/13/9 14/19/9 16/20/9 44/21/9
f 44/21/10 16/20/10 18/22/10 45/23/10
f 45/23/11 18/22/11 20/24/11 46/25/11
f 46/25/12 20/24/12 22/9/12 47/5/12
f 47/5/13 22/9/13 24/26/13 48/27/13
f 48/27/14 24/26/14 26/28/14 49/29/14
f 49/29/15 26/28/15 28/30/15 50/31/15
f 50/31/16 28/30/16 30/10/16 51/6/16
f 51/6/17 30/10/17 32/32/17 52/33/17
f 52/33/18 32/32/18 34/34/18 53/35/18
f 53/35/19 34/34/19 36/36/19 54/37/19
f 54/37/20 36/36/20 38/38/20 55/11/20
f 12/39/1 10/40/1 40/41/1 38/42/1 36/43/1 34/44/1 32/45/1 30/46/1 28/47/1 26/48/1 24/49/1 22/50/1 20/51/1 18/52/1 16/53/1 14/54/1
f 55/11/21 38/38/21 40/55/21 56/56/21
f 56/56/22 40/55/22 10/57/22 41/58/22
f 11/60/3 9/59/3 41/75/3 42/76/3
f 13/61/3 11/60/3 42/76/3 43/77/3
f 15/62/3 13/61/3 43/77/3 44/78/3
f 17/63/3 15/62/3 44/78/3 45/79/3
f 19/64/3 17/63/3 45/79/3 46/80/3
f 21/65/3 19/64/3 46/80/3 47/81/3
f 23/66/3 21/65/3 47/81/3 48/82/3
f 25/67/3 23/66/3 48/82/3 49/83/3
f 27/68/3 25/67/3 49/83/3 50/84/3
f 29/69/3 27/68/3 50/84/3 51/85/3
f 31/70/3 29/69/3 51/85/3 52/86/3
f 33/71/3 31/70/3 52/86/3 53/87/3
f 35/72/3 33/71/3 53/87/3 54/88/3
f 37/73/3 35/72/3 54/88/3 55/89/3
f 39/74/3 37/73/3 55/89/3 56/90/3
f 9/59/3 39/74/3 56/90/3 41/75/3
f 57/15/23 58/16/23 60/91/23 59/92/23
f 59/92/24 60/91/24 62/93/24 61/94/24
f 61/94/25 62/93/25 64/95/25 63/96/25
f 63/96/26 64/95/26 66/97/26 65/98/26
f 65/98/27 66/97/27 68/99/27 67/100/27
f 67/100/28 68/99/28 70/101/28 69/102/28
f 69/102/29 70/101/29 72/103/29 71/104/29
f 71/104/30 72/103/30 74/105/30 73/106/30
f 81/114/35 82/113/35 84/115/35 83/116/35
f 83/116/36 84/115/36 86/117/36 85/118/36
f 85/118/37 86/117/37 88/119/37 87/120/37
f 87/120/38 88/119/38 90/121/38 89/122/38
f 89/122/39 90/121/39 92/123/39 91/124/39
f 91/124/40 92/123/40 94/125/40 93/126/40
f 60/127/41 58/40/41 96/128/41 94/129/41 92/130/41 90/131/41 88/44/41 86/132/41 84/133/41 82/134/41 80/135/41 78/48/41 76/136/41 74/137/41 72/138/41 70/139/41 68/52/41 66/140/41 64/141/41 62/142/41
f 93/126/42 94/125/42 96/143/42 95/144/42
f 95/144/43 96/143/43 58/145/43 57/146/43
f 57/75/44 59/147/44 61/148/44 63/149/44 65/150/44 67/79/44 69/151/44 71/152/44 73/153/44 75/154/44 77/83/44 79/155/44 81/156/44 83/157/44 85/158/44 87/87/44 89/159/44 91/160/44 93/161/44 95/162/44
usemtl WindowBlue
f 9/59/3 11/60/3 13/61/3 15/62/3 17/63/3 19/64/3 21/65/3 23/66/3 25/67/3 27/68/3 29/69/3 31/70/3 33/71/3 35/72/3 37/73/3 39/74/3
f 73/106/31 74/105/31 76/107/31 75/108/31
f 75/108/32 76/107/32 78/109/32 77/110/32
f 77/110/33 78/109/33 80/111/33 79/112/33
f 79/112/34 80/111/34 82/113/34 81/114/34
f 170/6/54 169/5/54 172/7/54 171/8/54
usemtl LandingLegs
f 97/1/45 98/2/45 100/3/45 99/4/45
f 99/4/3 100/3/3 104/5/3 103/6/3
f 103/6/46 104/5/46 102/7/46 101/8/46
f 101/8/1 102/7/1 98/9/1 97/10/1
f 99/11/47 103/6/47 101/8/47 97/12/47
f 104/5/48 100/13/48 98/14/48 102/7/48
f 105/1/49 106/2/49 108/3/49 107/4/49
f 107/4/1 108/3/1 112/5/1 111/6/1
f 111/6/50 112/5/50 110/7/50 109/8/50
f 109/8/3 110/7/3 106/9/3 105/10/3
f 107/11/51 111/6/51 109/8/51 105/12/51
f 112/5/52 108/13/52 106/14/52 110/7/52
f 113/1/45 114/2/45 116/3/45 115/4/45
f 115/4/3 116/3/3 120/5/3 119/6/3
f 119/6/46 120/5/46 118/7/46 117/8/46
f 117/8/1 118/7/1 114/9/1 113/10/1
f 115/11/47 119/6/47 117/8/47 113/12/47
f 120/5/48 116/13/48 114/14/48 118/7/48
f 121/1/49 122/2/49 124/3/49 123/4/49
f 123/4/1 124/3/1 128/5/1 127/6/1
f 127/6/50 128/5/50 126/7/50 125/8/50
f 125/8/3 126/7/3 122/9/3 121/10/3
f 123/11/51 127/6/51 125/8/51 121/12/51
f 128/5/52 124/13/52 122/14/52 126/7/52
usemtl Windmill2
f 161/1/53 162/2/53 164/3/53 163/4/53
f 163/4/3 164/3/3 168/5/3 167/6/3
f 168/5/54 166/7/54 172/7/54 169/5/54
f 165/8/1 166/7/1 162/9/1 161/10/1
f 163/11/44 167/6/44 165/8/44 161/12/44
f 168/5/41 164/13/41 162/14/41 166/7/41
f 167/6/54 168/5/54 169/5/54 170/6/54
f 166/7/54 165/8/54 171/8/54 172/7/54
f 165/8/54 167/6/54 170/6/54 171/8/54
