# Blender 3.6.4
# www.blender.org
mtllib Solarpanel.mtl
o Cube.003
v -2.323518 2.327671 2.438826
v -2.124743 2.520434 2.321763
v -2.323518 2.327671 -2.438826
v -2.141151 2.526689 -2.339322
v 2.234127 0.590041 2.438826
v 2.230543 0.859954 2.339322
v 2.234127 0.590041 -2.438826
v 2.214135 0.866210 -2.321763
v -2.124743 2.520434 1.336477
v -2.124743 2.520434 -0.117064
v -2.141151 2.526689 -1.318917
v -1.187691 2.163177 -2.339322
v 0.137671 1.657874 -2.339322
v 1.091131 1.294362 -2.339322
v 2.214135 0.866210 -1.336477
v 2.214135 0.866210 -0.117064
v 2.230543 0.859954 1.318917
v 1.277083 1.223467 2.339322
v -0.048280 1.728769 2.339322
v -1.001740 2.092282 2.339322
v 1.091131 1.294362 -1.318917
v 1.074724 1.300617 0.117064
v 1.277083 1.223467 1.318917
v 0.137671 1.657874 -1.318917
v 0.154079 1.651619 0.117064
v -0.048280 1.728769 1.318917
v -1.187691 2.163177 -1.318917
v -1.204099 2.169433 -0.117064
v -1.001740 2.092282 1.318917
v -2.124743 2.520434 -1.102349
v -2.234127 2.562137 -2.438826
v 2.214135 0.866210 1.102349
v 2.323518 0.824507 2.438826
v -0.985332 2.086026 -2.321763
v -0.064688 1.735025 -2.321763
v 1.293491 1.217211 -2.321763
v 1.074724 1.300617 2.321763
v 0.154079 1.651619 2.321763
v -1.204099 2.169433 2.321763
v 1.074724 1.300617 1.102349
v 1.293491 1.217211 -1.336477
v 0.154079 1.651619 1.102349
v -0.064688 1.735025 -1.336477
v -1.204099 2.169433 1.336477
v -1.204099 2.169433 -1.102349
v 1.184107 1.258914 -2.438826
v 2.323518 0.824507 -2.438826
v -1.094716 2.127729 2.438826
v -2.234127 2.562137 2.438826
v -2.124743 2.520434 1.102349
v -2.124743 2.520434 0.117064
v -2.234127 2.562137 -1.219413
v 2.214135 0.866210 -1.102349
v 1.293491 1.217211 -1.102349
v 1.293491 1.217211 -0.117064
v 1.074724 1.300617 1.336477
v -0.064688 1.735025 0.117064
v 0.154079 1.651619 1.336477
v -1.204099 2.169433 1.102349
v -0.985332 2.086026 -1.336477
v -1.204099 2.169433 0.117064
v -2.234127 2.562137 1.219413
v -2.234127 2.562137 0.000000
v -1.094716 2.127729 -2.438826
v 0.044696 1.693322 -2.438826
v 2.323518 0.824507 -1.219413
v 2.214135 0.866210 0.117064
v 1.184107 1.258914 2.438826
v 0.044696 1.693322 2.438826
v 1.293491 1.217211 1.102349
v 1.074724 1.300617 -1.102349
v 1.293491 1.217211 0.117064
v -0.064688 1.735025 1.102349
v -0.064688 1.735025 -1.102349
v -0.985332 2.086026 -1.102349
v -0.985332 2.086026 0.117064
v -0.985332 2.086026 1.102349
v 2.323518 0.824507 0.000000
v 2.323518 0.824507 1.219413
v 1.074724 1.300617 -0.117064
v 1.184107 1.258914 1.219413
v -0.064688 1.735025 -0.117064
v 0.044696 1.693322 1.219413
v -0.985332 2.086026 -0.117064
v -1.094716 2.127729 1.219413
v 0.154079 1.651619 -1.102349
v 0.154079 1.651619 -0.117064
v -1.094716 2.127729 -1.219413
v -1.094716 2.127729 0.000000
v 1.184107 1.258914 -1.219413
v 1.184107 1.258914 0.000000
v 0.044696 1.693322 -1.219413
v 0.044696 1.693322 0.000000
v -0.041026 1.592506 2.012902
v 0.029269 1.541677 2.012902
v -0.041026 1.592506 1.837094
v 0.029269 1.541677 1.837094
v -1.737252 -0.753353 2.012902
v -1.666957 -0.804182 2.012902
v -1.737252 -0.753353 1.837094
v -1.666957 -0.804182 1.837094
v -0.041026 1.592506 -1.775758
v 0.029269 1.541677 -1.775758
v -0.041026 1.592506 -1.951566
v 0.029269 1.541677 -1.951566
v -1.737252 -0.753353 -1.775758
v -1.666957 -0.804182 -1.775758
v -1.737252 -0.753353 -1.951566
v -1.666957 -0.804182 -1.951566
vn -0.9344 0.3562 -0.0000
vn -0.0000 -0.0000 -1.0000
vn 0.9344 -0.3562 -0.0000
vn -0.0000 -0.0000 1.0000
vn -0.3562 -0.9344 -0.0000
vn 0.3562 0.9344 -0.0000
vn 0.5859 0.8104 -0.0000
vn -0.5859 -0.8103 -0.0000
vn -0.8104 0.5859 -0.0000
vn 0.8104 -0.5859 -0.0000
vt 0.375000 0.000000
vt 0.625000 0.000000
vt 0.625000 0.062500
vt 0.625000 0.125000
vt 0.625000 0.187500
vt 0.625000 0.250000
vt 0.375000 0.250000
vt 0.625000 0.312500
vt 0.625000 0.375000
vt 0.625000 0.437500
vt 0.625000 0.500000
vt 0.375000 0.500000
vt 0.625000 0.562500
vt 0.625000 0.625000
vt 0.625000 0.687500
vt 0.625000 0.750000
vt 0.375000 0.750000
vt 0.625000 0.812500
vt 0.625000 0.875000
vt 0.625000 0.937500
vt 0.625000 1.000000
vt 0.375000 1.000000
vt 0.125000 0.500000
vt 0.125000 0.750000
vt 0.818500 0.693500
vt 0.869000 0.693500
vt 0.869000 0.744000
vt 0.818500 0.744000
vt 0.630100 0.692600
vt 0.682400 0.692600
vt 0.682400 0.744900
vt 0.630100 0.744900
vt 0.693500 0.693500
vt 0.744000 0.693500
vt 0.744000 0.744000
vt 0.693500 0.744000
vt 0.755100 0.692600
vt 0.807400 0.692600
vt 0.807400 0.744900
vt 0.755100 0.744900
vt 0.631000 0.506000
vt 0.681500 0.506000
vt 0.681500 0.556500
vt 0.631000 0.556500
vt 0.631000 0.568500
vt 0.681500 0.568500
vt 0.681500 0.619000
vt 0.631000 0.619000
vt 0.631000 0.631000
vt 0.681500 0.631000
vt 0.681500 0.681500
vt 0.631000 0.681500
vt 0.692600 0.505100
vt 0.744900 0.505100
vt 0.744900 0.557400
vt 0.692600 0.557400
vt 0.693500 0.568500
vt 0.744000 0.568500
vt 0.744000 0.619000
vt 0.693500 0.619000
vt 0.693500 0.631000
vt 0.744000 0.631000
vt 0.744000 0.681500
vt 0.693500 0.681500
vt 0.756000 0.506000
vt 0.806500 0.506000
vt 0.806500 0.556500
vt 0.756000 0.556500
vt 0.756000 0.568500
vt 0.806500 0.568500
vt 0.806500 0.619000
vt 0.756000 0.619000
vt 0.756000 0.631000
vt 0.806500 0.631000
vt 0.806500 0.681500
vt 0.756000 0.681500
vt 0.817600 0.505100
vt 0.869900 0.505100
vt 0.869900 0.557400
vt 0.817600 0.557400
vt 0.818500 0.568500
vt 0.869000 0.568500
vt 0.869000 0.619000
vt 0.818500 0.619000
vt 0.818500 0.631000
vt 0.869000 0.631000
vt 0.869000 0.681500
vt 0.818500 0.681500
vt 0.875000 0.500000
vt 0.875000 0.562500
vt 0.812500 0.500000
vt 0.687500 0.500000
vt 0.750000 0.500000
vt 0.687500 0.750000
vt 0.812500 0.750000
vt 0.750000 0.750000
vt 0.687500 0.687500
vt 0.687500 0.562500
vt 0.750000 0.687500
vt 0.750000 0.562500
vt 0.812500 0.687500
vt 0.812500 0.562500
vt 0.875000 0.750000
vt 0.875000 0.687500
vt 0.875000 0.625000
vt 0.687500 0.625000
vt 0.750000 0.625000
vt 0.812500 0.625000
s 0
usemtl SolarPanelWhite
f 1/1/1 49/2/1 62/3/1 63/4/1 52/5/1 31/6/1 3/7/1
f 3/7/2 31/6/2 64/8/2 65/9/2 46/10/2 47/11/2 7/12/2
f 7/12/3 47/11/3 66/13/3 78/14/3 79/15/3 33/16/3 5/17/3
f 5/17/4 33/16/4 68/18/4 69/19/4 48/20/4 49/21/4 1/22/4
f 3/23/5 7/12/5 5/17/5 1/24/5
f 11/79/6 4/78/6 31/89/6 52/90/6
f 17/29/6 6/32/6 33/16/6 79/15/6
f 4/78/6 12/77/6 64/91/6 31/89/6
f 13/54/6 14/53/6 46/92/6 65/93/6
f 6/32/6 18/31/6 68/94/6 33/16/6
f 19/40/6 20/39/6 48/95/6 69/96/6
f 18/31/6 23/30/6 81/97/6 68/94/6
f 14/53/6 21/56/6 90/98/6 46/92/6
f 26/37/6 19/40/6 69/96/6 83/99/6
f 24/55/6 13/54/6 65/93/6 92/100/6
f 20/39/6 29/38/6 85/101/6 48/95/6
f 12/77/6 27/80/6 88/102/6 64/91/6
f 23/30/6 17/29/6 79/15/6 81/97/6
f 21/56/6 24/55/6 92/100/6 90/98/6
f 29/38/6 26/37/6 83/99/6 85/101/6
f 27/80/6 11/79/6 52/90/6 88/102/6
f 36/42/6 8/41/6 47/11/6 46/92/6
f 39/28/6 2/27/6 49/103/6 48/95/6
f 2/27/6 9/26/6 62/104/6 49/103/6
f 10/83/6 30/82/6 52/90/6 63/105/6
f 8/41/6 15/44/6 66/13/6 47/11/6
f 41/43/6 36/42/6 46/92/6 90/98/6
f 22/61/6 40/64/6 81/97/6 91/106/6
f 42/63/6 25/62/6 93/107/6 83/99/6
f 44/25/6 39/28/6 48/95/6 85/101/6
f 45/81/6 28/84/6 89/108/6 88/102/6
f 15/44/6 41/43/6 90/98/6 66/13/6
f 25/62/6 22/61/6 91/106/6 93/107/6
f 40/64/6 42/63/6 83/99/6 81/97/6
f 30/82/6 45/81/6 88/102/6 52/90/6
f 28/84/6 10/83/6 63/105/6 89/108/6
f 9/26/6 44/25/6 85/101/6 62/104/6
f 50/87/6 51/86/6 63/105/6 62/104/6
f 34/66/6 35/65/6 65/93/6 64/91/6
f 53/45/6 16/48/6 78/14/6 66/13/6
f 37/36/6 38/35/6 69/96/6 68/94/6
f 56/33/6 37/36/6 68/94/6 81/97/6
f 55/47/6 54/46/6 90/98/6 91/106/6
f 38/35/6 58/34/6 83/99/6 69/96/6
f 35/65/6 43/68/6 92/100/6 65/93/6
f 60/67/6 34/66/6 64/91/6 88/102/6
f 61/85/6 59/88/6 85/101/6 89/108/6
f 54/46/6 53/45/6 66/13/6 90/98/6
f 16/48/6 55/47/6 91/106/6 78/14/6
f 58/34/6 56/33/6 81/97/6 83/99/6
f 43/68/6 60/67/6 88/102/6 92/100/6
f 51/86/6 61/85/6 89/108/6 63/105/6
f 59/88/6 50/87/6 62/104/6 85/101/6
f 67/49/6 32/52/6 79/15/6 78/14/6
f 70/51/6 72/50/6 91/106/6 81/97/6
f 57/73/6 73/76/6 83/99/6 93/107/6
f 77/75/6 76/74/6 89/108/6 85/101/6
f 72/50/6 67/49/6 78/14/6 91/106/6
f 32/52/6 70/51/6 81/97/6 79/15/6
f 76/74/6 57/73/6 93/107/6 89/108/6
f 73/76/6 77/75/6 85/101/6 83/99/6
f 74/69/6 82/72/6 93/107/6 92/100/6
f 84/71/6 75/70/6 88/102/6 89/108/6
f 75/70/6 74/69/6 92/100/6 88/102/6
f 82/72/6 84/71/6 89/108/6 93/107/6
f 71/57/6 80/60/6 91/106/6 90/98/6
f 87/59/6 86/58/6 92/100/6 93/107/6
f 86/58/6 71/57/6 90/98/6 92/100/6
f 80/60/6 87/59/6 93/107/6 91/106/6
usemtl SolarPanelBlue
f 44/25/6 9/26/6 2/27/6 39/28/6
f 17/29/6 23/30/6 18/31/6 6/32/6
f 56/33/6 58/34/6 38/35/6 37/36/6
f 26/37/6 29/38/6 20/39/6 19/40/6
f 8/41/6 36/42/6 41/43/6 15/44/6
f 53/45/6 54/46/6 55/47/6 16/48/6
f 67/49/6 72/50/6 70/51/6 32/52/6
f 14/53/6 13/54/6 24/55/6 21/56/6
f 71/57/6 86/58/6 87/59/6 80/60/6
f 22/61/6 25/62/6 42/63/6 40/64/6
f 35/65/6 34/66/6 60/67/6 43/68/6
f 74/69/6 75/70/6 84/71/6 82/72/6
f 57/73/6 76/74/6 77/75/6 73/76/6
f 12/77/6 4/78/6 11/79/6 27/80/6
f 45/81/6 30/82/6 10/83/6 28/84/6
f 61/85/6 51/86/6 50/87/6 59/88/6
usemtl LandingLegs
f 94/1/7 95/2/7 97/6/7 96/7/7
f 96/7/2 97/6/2 101/11/2 100/12/2
f 100/12/8 101/11/8 99/16/8 98/17/8
f 98/17/4 99/16/4 95/21/4 94/22/4
f 96/23/9 100/12/9 98/17/9 94/24/9
f 101/11/10 97/89/10 95/103/10 99/16/10
f 102/1/7 103/2/7 105/6/7 104/7/7
f 104/7/2 105/6/2 109/11/2 108/12/2
f 108/12/8 109/11/8 107/16/8 106/17/8
f 106/17/4 107/16/4 103/21/4 102/22/4
f 104/23/9 108/12/9 106/17/9 102/24/9
f 109/11/10 105/89/10 103/103/10 107/16/10
