# Blender 3.6.4
# www.blender.org
mtllib Windmill.mtl
o Cylinder.001
v 0.000000 -1.703596 -0.374276
v 0.000000 2.012189 -0.374276
v 0.324132 -1.703596 -0.187138
v 0.324132 2.012189 -0.187138
v 0.324132 -1.703596 0.187138
v 0.324132 2.012189 0.187138
v 0.000000 -1.703596 0.374276
v 0.000000 2.012189 0.374276
v -0.324132 -1.703596 0.187138
v -0.324132 2.012189 0.187138
v -0.324132 -1.703596 -0.187138
v -0.324132 2.012189 -0.187138
v 0.254741 5.205213 -0.147075
v 0.000000 5.205213 -0.294150
v 0.254741 5.205213 0.147075
v 0.000000 5.205213 0.294150
v -0.254741 5.205213 0.147075
v -0.254741 5.205213 -0.147075
vn 0.5000 -0.0000 -0.8660
vn 1.0000 -0.0000 -0.0000
vn 0.5000 -0.0000 0.8660
vn -0.5000 -0.0000 0.8660
vn 0.4999 0.0217 0.8658
vn -1.0000 -0.0000 -0.0000
vn -0.5000 -0.0000 -0.8660
vn -0.0000 -1.0000 -0.0000
vn -0.0000 1.0000 -0.0000
vn -0.4999 0.0217 -0.8658
vn -0.4999 0.0217 0.8658
vn 0.9998 0.0217 -0.0000
vn -0.9998 0.0217 -0.0000
vn 0.4999 0.0217 -0.8658
vt 1.000000 0.500000
vt 1.000000 1.000000
vt 0.833333 1.000000
vt 0.833333 0.500000
vt 0.666667 1.000000
vt 0.666667 0.500000
vt 0.500000 1.000000
vt 0.500000 0.500000
vt 0.333333 1.000000
vt 0.333333 0.500000
vt 0.166667 1.000000
vt 0.166667 0.500000
vt -0.000000 1.000000
vt -0.000000 0.500000
vt 0.750000 0.490000
vt 0.957846 0.370000
vt 0.957846 0.130000
vt 0.750000 0.010000
vt 0.542154 0.130000
vt 0.542154 0.370000
vt 0.457846 0.370000
vt 0.250000 0.490000
vt 0.042154 0.370000
vt 0.042154 0.130000
vt 0.250000 0.010000
vt 0.457846 0.130000
s 0
usemtl GeneralBaseColor
f 1/1/1 2/2/1 4/3/1 3/4/1
f 3/4/2 4/3/2 6/5/2 5/6/2
f 5/6/3 6/5/3 8/7/3 7/8/3
f 7/8/4 8/7/4 10/9/4 9/10/4
f 8/7/5 6/5/5 15/5/5 16/7/5
f 9/10/6 10/9/6 12/11/6 11/12/6
f 11/12/7 12/11/7 2/13/7 1/14/7
f 1/15/8 3/16/8 5/17/8 7/18/8 9/19/8 11/20/8
f 13/21/9 14/22/9 18/23/9 17/24/9 16/25/9 15/26/9
f 2/13/10 12/11/10 18/11/10 14/13/10
f 10/9/11 8/7/11 16/7/11 17/9/11
f 6/5/12 4/3/12 13/3/12 15/5/12
f 12/11/13 10/9/13 17/9/13 18/11/13
f 4/3/14 2/2/14 14/2/14 13/3/14
o Cylinder.004
v -0.374276 5.205917 -0.374276
v 0.374276 5.205917 -0.374276
v -0.374276 4.881785 -0.187138
v 0.374276 4.881785 -0.187138
v -0.374276 4.881785 0.187138
v 0.374276 4.881785 0.187138
v -0.374276 5.205917 0.374276
v 0.374276 5.205917 0.374276
v -0.374276 5.530050 0.187138
v 0.374276 5.530050 0.187138
v -0.374276 5.530050 -0.187138
v 0.374276 5.530050 -0.187138
v 0.525434 4.881785 -0.187138
v 0.525434 5.205917 -0.374276
v 0.525434 4.881785 0.187138
v 0.525434 5.205917 0.374276
v 0.525434 5.530050 0.187138
v 0.525434 5.530050 -0.187138
v 0.429845 3.146323 -3.468230
v 0.429845 3.232140 -3.517776
v 0.429845 3.232140 3.517776
v 0.429845 3.146323 3.468230
v 0.429844 9.239289 -0.049546
v 0.429844 9.239289 0.049546
v 0.469865 3.146323 -3.468230
v 0.469865 3.232140 -3.517776
v 0.469865 3.232140 3.517776
v 0.469865 3.146323 3.468230
v 0.469865 9.239289 -0.049546
v 0.469865 9.239289 0.049546
vn -0.0000 -0.5000 -0.8660
vn -0.0000 -1.0000 -0.0000
vn -0.0000 -0.5000 0.8660
vn -0.0000 0.5000 0.8660
vn -0.9999 0.0150 -0.0000
vn -0.0000 1.0000 -0.0000
vn -0.0000 0.5000 -0.8660
vn -1.0000 -0.0000 -0.0000
vn 1.0000 -0.0000 -0.0000
vn -0.0000 -0.8840 -0.4676
vn -0.0000 0.8469 -0.5318
vn -0.0000 0.0371 0.9993
vn -0.9999 -0.0075 -0.0130
vn 0.9999 -0.0075 -0.0130
vn -0.9999 -0.0075 0.0130
vn -0.0000 0.8469 0.5318
vn 0.9999 0.0150 -0.0000
vn -0.0000 -0.8840 0.4676
vn -0.0000 0.0371 -0.9993
vn 0.9999 -0.0075 0.0130
vt 1.000000 0.500000
vt 1.000000 1.000000
vt 0.833333 1.000000
vt 0.833333 0.500000
vt 0.666667 1.000000
vt 0.666667 0.500000
vt 0.500000 1.000000
vt 0.500000 0.500000
vt 0.333333 1.000000
vt 0.333333 0.500000
vt 0.166667 1.000000
vt 0.166667 0.500000
vt -0.000000 1.000000
vt -0.000000 0.500000
vt 0.750000 0.490000
vt 0.957846 0.370000
vt 0.957846 0.130000
vt 0.750000 0.010000
vt 0.542154 0.130000
vt 0.542154 0.370000
vt 0.457846 0.370000
vt 0.250000 0.490000
vt 0.042154 0.370000
vt 0.042154 0.130000
vt 0.250000 0.010000
vt 0.457846 0.130000
s 0
usemtl GeneralBaseColor
f 30/37/19 28/35/19 42/35/19 41/37/19
f 31/47/23 32/48/23 36/49/23 35/50/23 34/51/23 33/52/23
f 20/39/21 30/37/21 36/37/21 32/39/21
f 28/35/18 26/33/18 34/33/18 35/35/18
f 24/31/16 22/29/16 31/29/16 33/31/16
f 24/31/24 33/31/24 46/31/24 40/31/24
f 20/39/25 32/39/25 44/39/25 38/39/25
f 39/33/17 40/31/17 46/31/17 45/33/17
f 41/37/20 42/35/20 48/35/20 47/37/20
f 37/29/15 38/28/15 44/28/15 43/29/15
f 28/35/26 35/35/26 48/35/26 42/35/26
f 22/29/27 20/28/27 38/28/27 37/29/27
f 32/48/28 31/47/28 43/47/28 44/48/28
f 26/33/29 24/31/29 40/31/29 39/33/29
f 34/33/30 26/33/30 39/33/30 45/33/30
f 35/50/31 36/49/31 47/49/31 48/50/31
f 31/29/32 22/29/32 37/29/32 43/29/32
f 36/37/33 30/37/33 41/37/33 47/37/33
f 33/52/34 34/51/34 45/51/34 46/52/34
usemtl Material.001
f 19/27/15 20/28/15 22/29/15 21/30/15
f 21/30/16 22/29/16 24/31/16 23/32/16
f 23/32/17 24/31/17 26/33/17 25/34/17
f 25/34/18 26/33/18 28/35/18 27/36/18
f 27/36/20 28/35/20 30/37/20 29/38/20
f 29/38/21 30/37/21 20/39/21 19/40/21
f 19/41/22 21/42/22 23/43/22 25/44/22 27/45/22 29/46/22
