# Blender 3.6.4
# www.blender.org
mtllib Windmill.mtl
o Windmill
v -0.046516 5.070105 0.091651
v -0.046516 5.628094 2.397697
v -0.046516 5.334522 -0.081198
v -0.046516 5.642306 2.405902
v -0.007223 5.070105 0.091651
v -0.007223 5.628094 2.397697
v -0.007223 5.334522 -0.081198
v -0.007223 5.642306 2.405902
v -0.014563 -0.217255 -0.379944
v -0.014564 5.123184 -0.115936
v 0.244038 -0.217254 -0.272828
v 0.057355 5.123184 -0.086146
v 0.351154 -0.217255 -0.014227
v 0.087145 5.123184 -0.014227
v 0.244038 -0.217254 0.244374
v 0.057355 5.123184 0.057692
v -0.014563 -0.217255 0.351490
v -0.014564 5.123184 0.087482
v -0.273164 -0.217254 0.244374
v -0.086483 5.123184 0.057692
v -0.380280 -0.217255 -0.014227
v -0.116273 5.123184 -0.014227
v -0.273164 -0.217254 -0.272828
v -0.086483 5.123184 -0.086146
v -0.047018 5.244880 0.071899
v -0.047018 6.962979 -1.564356
v -0.047018 4.962979 -0.070669
v -0.047018 6.962979 -1.580767
v -0.007725 5.244880 0.071899
v -0.007725 6.962979 -1.564356
v -0.007725 4.962979 -0.070669
v -0.007725 6.962979 -1.580767
v -0.046396 5.178683 -0.127400
v -0.046396 2.902594 -0.797190
v -0.046396 5.196165 0.188017
v -0.046396 2.888381 -0.788985
v -0.007103 5.178683 -0.127400
v -0.007103 2.902594 -0.797190
v -0.007103 5.196165 0.188017
v -0.007103 2.888381 -0.788985
v -0.126992 5.119815 0.070866
v -0.126992 5.288746 0.070866
v -0.126992 5.119815 -0.098065
v -0.126992 5.288746 -0.098065
v 0.041939 5.119815 0.070866
v 0.041939 5.288746 0.070866
v 0.041939 5.119815 -0.098065
v 0.041939 5.288746 -0.098065
vn -1.0000 -0.0000 -0.0000
vn -0.0000 0.9924 -0.1228
vn 1.0000 -0.0000 -0.0000
vn -0.0000 -0.9720 0.2352
vn -0.0000 -0.5472 -0.8370
vn -0.0000 -0.5000 0.8660
vn 0.3823 0.0456 -0.9229
vn 0.9229 0.0456 -0.3823
vn 0.9229 0.0456 0.3823
vn 0.3823 0.0456 0.9229
vn -0.3823 0.0456 0.9229
vn -0.9229 0.0456 0.3823
vn -0.0000 1.0000 -0.0000
vn -0.9229 0.0456 -0.3823
vn -0.3823 0.0456 -0.9229
vn -0.0000 -1.0000 -0.0000
vn -0.0000 -0.6026 -0.7981
vn -0.0000 0.6896 0.7241
vn -0.0000 -0.4513 0.8924
vn -0.0000 -0.3899 0.9209
vn -0.0000 0.2823 -0.9593
vn -0.0000 0.9985 -0.0553
vn -0.0000 -0.5000 -0.8660
vn -0.0000 -0.0000 -1.0000
vn -0.0000 -0.0000 1.0000
vt 0.375000 0.000000
vt 0.625000 0.000000
vt 0.625000 0.250000
vt 0.375000 0.250000
vt 0.625000 0.500000
vt 0.375000 0.500000
vt 0.625000 0.750000
vt 0.375000 0.750000
vt 0.625000 1.000000
vt 0.375000 1.000000
vt 0.875000 0.500000
vt 0.875000 0.750000
vt 1.000000 0.500000
vt 1.000000 1.000000
vt 0.875000 1.000000
vt 0.750000 1.000000
vt 0.750000 0.500000
vt 0.500000 1.000000
vt 0.500000 0.500000
vt 0.250000 1.000000
vt 0.250000 0.500000
vt 0.419706 0.419706
vt 0.250000 0.490000
vt 0.080294 0.419706
vt 0.010000 0.250000
vt 0.080294 0.080294
vt 0.250000 0.010000
vt 0.419706 0.080294
vt 0.490000 0.250000
vt 0.125000 1.000000
vt 0.125000 0.500000
vt 0.000000 1.000000
vt 0.000000 0.500000
vt 0.750000 0.490000
vt 0.919706 0.419706
vt 0.990000 0.250000
vt 0.919706 0.080294
vt 0.750000 0.010000
vt 0.580294 0.080294
vt 0.510000 0.250000
vt 0.580294 0.419706
vt 0.125000 0.750000
s 0
usemtl Windmill
f 1/1/1 2/2/1 4/3/1 3/4/1
f 3/4/2 4/3/2 8/5/2 7/6/2
f 7/6/3 8/5/3 6/7/3 5/8/3
f 5/8/4 6/7/4 2/9/4 1/10/4
f 3/4/5 7/6/5 5/8/5 1/10/5
f 8/5/6 4/11/6 2/12/6 6/7/6
f 9/13/7 10/14/7 12/15/7 11/11/7
f 11/11/8 12/15/8 14/16/8 13/17/8
f 13/17/9 14/16/9 16/9/9 15/5/9
f 15/5/10 16/9/10 18/18/10 17/19/10
f 17/19/11 18/18/11 20/10/11 19/6/11
f 19/6/12 20/10/12 22/20/12 21/21/12
f 12/22/13 10/23/13 24/24/13 22/25/13 20/26/13 18/27/13 16/28/13 14/29/13
f 21/21/14 22/20/14 24/30/14 23/31/14
f 23/31/15 24/30/15 10/32/15 9/33/15
f 9/34/16 11/35/16 13/36/16 15/37/16 17/38/16 19/39/16 21/40/16 23/41/16
f 25/1/1 26/2/1 28/3/1 27/4/1
f 27/4/17 28/3/17 32/5/17 31/6/17
f 31/6/3 32/5/3 30/7/3 29/8/3
f 29/8/18 30/7/18 26/9/18 25/10/18
f 27/31/19 31/6/19 29/8/19 25/42/19
f 32/5/13 28/11/13 26/12/13 30/7/13
f 33/1/1 34/2/1 36/3/1 35/4/1
f 35/4/20 36/3/20 40/5/20 39/6/20
f 39/6/3 40/5/3 38/7/3 37/8/3
f 37/8/21 38/7/21 34/9/21 33/10/21
f 35/31/22 39/6/22 37/8/22 33/42/22
f 40/5/23 36/11/23 34/12/23 38/7/23
usemtl Windmill2
f 41/1/1 42/2/1 44/3/1 43/4/1
f 43/4/24 44/3/24 48/5/24 47/6/24
f 47/6/3 48/5/3 46/7/3 45/8/3
f 45/8/25 46/7/25 42/9/25 41/10/25
f 43/31/16 47/6/16 45/8/16 41/42/16
f 48/5/13 44/11/13 42/12/13 46/7/13
